<?xml version="1.0" encoding="UTF-8"?>
<!DOCTYPE svg PUBLIC "-//W3C//DTD SVG 1.1//EN" "http://www.w3.org/Graphics/SVG/1.1/DTD/svg11.dtd">
<!-- Creator: CorelDRAW 2021 (64-Bit) -->
<svg xmlns="http://www.w3.org/2000/svg" xml:space="preserve" width="5.3836mm" height="4.7173mm" version="1.1" style="shape-rendering:geometricPrecision; text-rendering:geometricPrecision; image-rendering:optimizeQuality; fill-rule:evenodd; clip-rule:evenodd"
viewBox="0 0 296.17 259.51"
 xmlns:xlink="http://www.w3.org/1999/xlink"
 xmlns:xodm="http://www.corel.com/coreldraw/odm/2003">
 <defs>
  <style type="text/css">
   <![CDATA[
    .str0 {stroke:#564E5C;stroke-width:19.41;stroke-miterlimit:10}
    .fil0 {fill:none;fill-rule:nonzero}
   ]]>
  </style>
 </defs>
 <g id="Layer_x0020_1">
  <metadata id="CorelCorpID_0Corel-Layer"/>
  <path class="fil0 str0" d="M9.7 84.2l248.65 0c8.87,0 17.22,4.11 22.52,11.09 7.44,9.8 7.44,23.24 0,33.03 -5.3,6.98 -13.65,11.09 -22.52,11.09l-220.55 0c-8.86,0 -17.21,4.11 -22.51,11.09 -7.45,9.8 -7.45,23.24 0,33.03 5.3,6.98 13.65,11.09 22.51,11.09l220.55 0c8.87,0 17.22,4.11 22.52,11.09 7.44,9.8 7.44,23.24 0,33.04 -5.3,6.97 -13.65,11.09 -22.52,11.09l-248.65 0m1.2 -210.26l26.38 -26.89c3.87,-3.94 10.15,-3.94 14.02,0l26.62 27.13m34.91 -0.24l26.38 -26.89c3.87,-3.94 10.14,-3.94 14.02,0l26.62 27.13m39.58 -0.24l26.4 -26.89c3.87,-3.94 10.14,-3.94 14.01,0l26.62 27.13"/>
 </g>
</svg>
