<?xml version="1.0" encoding="UTF-8"?>
<!DOCTYPE svg PUBLIC "-//W3C//DTD SVG 1.1//EN" "http://www.w3.org/Graphics/SVG/1.1/DTD/svg11.dtd">
<!-- Creator: CorelDRAW 2021 (64-Bit) -->
<svg xmlns="http://www.w3.org/2000/svg" xml:space="preserve" width="7.4595mm" height="4.8658mm" version="1.1" style="shape-rendering:geometricPrecision; text-rendering:geometricPrecision; image-rendering:optimizeQuality; fill-rule:evenodd; clip-rule:evenodd"
viewBox="0 0 528.77 344.91"
 xmlns:xlink="http://www.w3.org/1999/xlink"
 xmlns:xodm="http://www.corel.com/coreldraw/odm/2003">
 <defs>
  <style type="text/css">
   <![CDATA[
    .str0 {stroke:#564E5C;stroke-width:25.01;stroke-linecap:round;stroke-linejoin:round;stroke-miterlimit:10}
    .fil0 {fill:none;fill-rule:nonzero}
   ]]>
  </style>
 </defs>
 <g id="Layer_x0020_1">
  <metadata id="CorelCorpID_0Corel-Layer"/>
  <path class="fil0 str0" d="M374.08 223.85c12.67,5.26 26.75,8.19 41.59,8.19 55.56,0 100.59,-41.14 100.59,-91.89 0,-50.76 -45.03,-91.9 -100.59,-91.9 -55.57,0 -100.6,41.13 -100.6,91.9 0,12.07 2.55,23.6 7.19,34.17l-114.42 104.51 0 53.56 47.63 0 16.37 -14.99 0 -25.16 27.5 0 0 -16.29 17.8 0 0 -22.75 24.86 0 32.08 -29.36zm-166.24 87.35l105.89 -96.72m157.63 -106.97c0,11.43 -10.15,20.69 -22.65,20.69 -12.51,0 -22.65,-9.26 -22.65,-20.69 0,-11.42 10.14,-20.69 22.65,-20.69 12.5,0 22.65,9.27 22.65,20.69zm-178.5 70.32l0 -126.54c-44.7,3.79 -83.49,-21.86 -119.64,-38.8 -36.15,16.93 -74.95,42.58 -119.65,38.8l0 156.25c12.16,72.48 119.65,103.65 119.65,103.65l0 0c0,0 4.66,-1.34 12.14,-4.14m-24.5 -14.06l-33.23 -100.42 -22.56 38.47 55.79 61.95zm0 28.92l-148.37 0 0 -45.65 148.37 45.65z"/>
 </g>
</svg>
