<?xml version="1.0" encoding="UTF-8"?>
<!DOCTYPE svg PUBLIC "-//W3C//DTD SVG 1.1//EN" "http://www.w3.org/Graphics/SVG/1.1/DTD/svg11.dtd">
<!-- Creator: CorelDRAW 2021 (64-Bit) -->
<svg xmlns="http://www.w3.org/2000/svg" xml:space="preserve" width="5.1898mm" height="5.5829mm" version="1.1" style="shape-rendering:geometricPrecision; text-rendering:geometricPrecision; image-rendering:optimizeQuality; fill-rule:evenodd; clip-rule:evenodd"
viewBox="0 0 45.5 48.95"
 xmlns:xlink="http://www.w3.org/1999/xlink"
 xmlns:xodm="http://www.corel.com/coreldraw/odm/2003">
 <defs>
  <style type="text/css">
   <![CDATA[
    .str0 {stroke:#564E5C;stroke-width:3.09;stroke-miterlimit:10}
    .fil0 {fill:none;fill-rule:nonzero}
   ]]>
  </style>
 </defs>
 <g id="Layer_x0020_1">
  <metadata id="CorelCorpID_0Corel-Layer"/>
  <path class="fil0 str0" d="M-0 36.3c2.08,0 7.57,2.86 7.57,2.86 2.36,1.23 5.35,1.23 7.7,0l3.72 -1.94c2.36,-1.23 5.34,-1.23 7.7,0l3.69 1.92c2.38,1.24 5.39,1.23 7.75,-0.03 0,0 5.34,-2.82 7.36,-2.82m-45.5 7.32c2.08,0 7.57,2.86 7.57,2.86 2.36,1.23 5.35,1.23 7.7,0l3.72 -1.94c2.36,-1.23 5.34,-1.23 7.7,0l3.69 1.92c2.38,1.24 5.39,1.23 7.75,-0.03 0,0 5.34,-2.82 7.36,-2.82m-18.79 -14.54c10.93,-3.6 2.2,-19.59 -3.03,-27.02 -0.48,-0.68 -1.55,-0.68 -2.03,0 -5.32,7.56 -13.58,22.82 -2.92,26.84 2.54,0.96 5.39,1.03 7.99,0.18z"/>
 </g>
</svg>
